<svg xmlns="http://www.w3.org/2000/svg" height="16" width="16" viewBox="0 0 512 512"><!--!Font Awesome Free 6.5.1 by @fontawesome - https://fontawesome.com License - https://fontawesome.com/license/free Copyright 2023 Fonticons, Inc.--><path opacity="1" fill="#1E3050" d="M186.1 343.3c-9.7 9.7-9.7 25.3 0 34.9 9.7 9.7 25.3 9.7 34.9 0L378.2 221.1c19.3-19.3 50.6-19.3 69.9 0s19.3 50.6 0 69.9L294 445.1c19.3 19.3 50.5 19.3 69.8 0l0 0 119.3-119.2c38.6-38.6 38.6-101.1 0-139.7-38.6-38.6-101.2-38.6-139.7 0l-157.2 157.2zm244.5-104.8c-9.7-9.7-25.3-9.7-34.9 0l-157.2 157.2c-19.3 19.3-50.5 19.3-69.8 .1l-.1-.1c-9.6-9.6-25.3-9.7-34.9 0l0 0c-9.7 9.6-9.7 25.3 0 34.9l0 0c38.6 38.6 101.1 38.6 139.7 0l157.2-157.2c9.7-9.7 9.7-25.3 0-34.9zm-262 87.3l157.2-157.2c9.6-9.7 9.6-25.3 0-34.9-9.6-9.6-25.3-9.6-34.9 0L133.7 290.9c-19.3 19.3-50.6 19.3-69.9 0l0 0c-19.3-19.3-19.3-50.5 0-69.8l0 0L218 66.9c-19.3-19.3-50.6-19.3-69.9 0l0 0L28.9 186.1c-38.6 38.6-38.6 101.1 0 139.7 38.6 38.6 101.1 38.6 139.7 0zm-87.3-52.4c9.6 9.6 25.3 9.6 34.9 0l157.2-157.2c19.3-19.3 50.6-19.3 69.8 0l0 0c9.7 9.7 25.3 9.7 34.9 0 9.7-9.7 9.7-25.3 0-34.9-38.6-38.6-101.1-38.6-139.7 0L81.3 238.5c-9.7 9.6-9.7 25.3 0 34.9h0z"/></svg>